HIERARCHY
ROOT root     
{
	OFFSET 0.0000 0.0000 0.0000
	CHANNELS 6 Xposition Yposition Zposition Zrotation Yrotation Xrotation
	JOINT pelvis   
	{
		OFFSET 0.0000 0.0000 0.0000
		CHANNELS 3 Zrotation Yrotation Xrotation
		JOINT thorax   
		{
			OFFSET 0.0000 23.0750 -5.0000
			CHANNELS 3 Zrotation Yrotation Xrotation
			JOINT rclavicle
			{
				OFFSET 0.0000 28.0009 0.0000
				CHANNELS 3 Zrotation Yrotation Xrotation
				JOINT rhumerus 
				{
					OFFSET -18.5725 5.5939 0.0000
					CHANNELS 3 Zrotation Yrotation Xrotation
					JOINT rradius  
					{
						OFFSET -24.8459 0.0000 0.0000
						CHANNELS 3 Zrotation Yrotation Xrotation
						JOINT rhand    
						{
							OFFSET -24.5477 0.0000 0.0000
							CHANNELS 3 Zrotation Yrotation Xrotation
							End Site
							{
								OFFSET -8.1826 0.0000 0.0000
							}
						}
					}
				}
			}
			JOINT lclavicle
			{
				OFFSET 0.0000 28.0009 0.0000
				CHANNELS 3 Zrotation Yrotation Xrotation
				JOINT lhumerus 
				{
					OFFSET 18.5725 5.5939 0.0000
					CHANNELS 3 Zrotation Yrotation Xrotation
					JOINT lradius  
					{
						OFFSET 24.8459 0.0000 0.0000
						CHANNELS 3 Zrotation Yrotation Xrotation
						JOINT lhand    
						{
							OFFSET 24.5477 0.0000 0.0000
							CHANNELS 3 Zrotation Yrotation Xrotation
							End Site
							{
								OFFSET 8.1826 0.0000 0.0000
							}
						}
					}
				}
			}
			JOINT head     
			{
				OFFSET 0.0000 35.2030 0.0000
				CHANNELS 3 Zrotation Yrotation Xrotation
				End Site
				{
					OFFSET 0.0000 11.7343 0.0000
				}
			}
		}
		JOINT rfemur   
		{
			OFFSET -8.2817 0.0000 0.0000
			CHANNELS 3 Zrotation Yrotation Xrotation
			JOINT rtibia   
			{
				OFFSET 0.0000 -43.3627 0.0000
				CHANNELS 3 Zrotation Yrotation Xrotation
				JOINT rfoot    
				{
					OFFSET 0.0000 -38.2947 0.0000
					CHANNELS 3 Zrotation Yrotation Xrotation
					JOINT rtoes    
					{
						OFFSET 0.0000 0.0000 16.6054
						CHANNELS 3 Zrotation Yrotation Xrotation
						End Site
						{
							OFFSET 0.0000 0.0000 5.5351
						}
					}
				}
			}
		}
		JOINT lfemur   
		{
			OFFSET 8.2817 0.0000 0.0000
			CHANNELS 3 Zrotation Yrotation Xrotation
			JOINT ltibia   
			{
				OFFSET 0.0000 -43.3627 0.0000
				CHANNELS 3 Zrotation Yrotation Xrotation
				JOINT lfoot    
				{
					OFFSET 0.0000 -38.2947 0.0000
					CHANNELS 3 Zrotation Yrotation Xrotation
					JOINT ltoes    
					{
						OFFSET 0.0000 0.0000 16.6054
						CHANNELS 3 Zrotation Yrotation Xrotation
						End Site
						{
							OFFSET 0.0000 0.0000 5.5351
						}
					}
				}
			}
		}
	}
}
MOTION
Frames: 13
Frame Time: .0333333
-12.878 84.648 -8.103 12.0096 87.1408 32.2467 0 -0 0 -11.2331 -2.83056 -9.49854 27.237 -9.6469 -5.12047e-05 35.0257 13.9594 33.3007 180 82.3667 180 4.28543 6.59195 0.246904 -25.1284 15.3659 7.85379e-05 -53.2913 27.2723 2.78538 1.32129e-05 -88.6789 -1.29111e-05 15.37 2.62875 0.354809 15.9833 -1.69058 -8.35571 1.43219 -10.4244 -4.81023 -0 -0 32.4742 -0.000122786 18.1843 17.61 5.67541 1.23805e-05 -73.0213 -5.60173 8.20227 -41.256 -0 -0 24.0188 4.73554e-06 -1.97818 7.50982 -0.258608 -8.02576e-07 -26.2508 
-11.809 84.42 -8.179 18.54 86.6499 38.7879 0 -0 0 -11.8611 -3.39433 -9.37241 27.318 -9.51833 -2.72919e-05 35.1871 14.1493 32.9004 180 82.129 180 4.30006 6.32809 0.237805 -25.6157 15.3013 9.00473e-05 -52.2722 26.6126 3.11838 0 -87.8308 0 16.2622 3.03523 0.433782 16.8271 -1.8137 -8.52813 0.341103 -10.9579 -5.80792 -0 -0 35.481 7.90199e-05 17.1304 17.6108 5.32727 -8.18642e-06 -74.052 -5.80644 7.69648 -41.6065 -0 -0 26.4904 2.03595e-06 -1.21076 6.44478 -0.135897 7.12622e-07 -23.4333 
-10.734 84.254 -8.2699 23.4574 86.0496 43.6293 0 -0 0 -12.5176 -3.82728 -9.1512 27.3697 -9.41637 3.59499e-05 35.5216 14.2688 32.5078 180 82.0033 180 4.22765 5.98493 0.221098 -26.1417 15.2285 -1.87883e-05 -51.1191 25.6639 3.63095 5.23593e-06 -86.8234 -4.95345e-06 17.0925 3.478 0.522793 17.5936 -2.01199 -8.69904 -0.824832 -11.4131 -6.79948 -0 -0 38.4567 -3.51949e-05 15.3453 17.6661 4.76052 1.46356e-05 -74.6864 -6.06095 7.19554 -41.5898 -0 -0 28.5035 1.99371e-07 -0.3464 5.36167 -0.0323995 1.02268e-07 -21.4772 
-9.652 84.157 -8.3648 26.5956 85.3393 46.6265 0 -0 0 -13.1521 -4.11161 -8.86103 27.4018 -9.34655 -5.22368e-05 35.9866 14.3136 32.134 -180 81.977 -180 4.04501 5.5807 0.197202 -26.6951 15.1319 6.42126e-05 -49.8839 24.4662 4.28368 2.93345e-06 -85.6778 -2.71987e-06 17.8098 3.93252 0.616385 18.2757 -2.29232 -8.86116 -2.00604 -11.763 -7.77394 -0 -0 41.3199 4.88346e-05 12.8577 17.7395 3.9783 -7.07076e-05 -74.7066 -6.35489 6.7573 -41.2315 -0 -0 29.9969 3.50182e-07 0.565497 4.29086 0.0423006 -5.59768e-08 -20.4393 
-8.5628 84.128 -8.4537 28.1867 84.5669 48.0194 0 -0 0 -13.7182 -4.24192 -8.53054 27.4227 -9.30861 5.32352e-05 36.5327 14.2834 31.7848 -180 82.023 -180 3.73966 5.14196 0.168002 -27.26 15.0094 -8.40725e-05 -48.6315 23.0581 5.03388 1.62101e-06 -84.4054 -1.46992e-06 18.3757 4.37204 0.707507 18.8745 -2.65498 -9.00637 -3.14721 -11.9909 -8.7278 -0 -0 44.0049 -1.709e-05 9.75537 17.7769 3.00479 -1.07854e-05 -73.8761 -6.66676 6.42474 -40.5679 -0 -0 30.9611 1.84254e-06 1.48953 3.25834 0.0846983 5.95647e-08 -20.2502 
-7.4658 84.163 -8.5301 28.5783 83.7704 48.1633 0 -0 0 -14.1847 -4.2252 -8.18381 27.443 -9.3002 -1.0467e-05 37.1118 14.1788 31.4712 180 82.1282 180 3.31137 4.70024 0.135905 -27.8082 14.8582 0.000217053 -47.4307 21.4876 5.84108 4.89931e-06 -83.0387 -4.97553e-06 18.7616 4.76899 0.788269 19.3935 -3.09396 -9.12443 -4.2124 -12.0936 -9.65757 -0 -0 46.4676 -1.51659e-05 6.19418 17.7099 1.89097 -3.59648e-05 -72.0052 -6.97637 6.22126 -39.642 -0 -0 31.4141 7.1435e-07 2.40502 2.29363 0.0963014 3.16937e-07 -20.7735 
-6.3646 84.256 -8.583 27.9483 82.9791 47.2614 0 -0 0 -14.4894 -4.0816 -7.85407 27.4576 -9.31183 -1.14429e-05 37.6812 14.0036 31.1978 180 82.2736 180 2.77702 4.28731 0.104 -28.3333 14.6739 0.000149916 -46.3417 19.8287 6.65287 1.57353e-06 -81.6512 -1.35951e-06 18.9554 5.10083 0.852083 19.828 -3.59578 -9.20078 -5.13527 -12.0491 -10.5698 -0 -0 48.6649 9.98009e-07 2.35336 17.4812 0.707294 2.46441e-06 -69.0125 -7.24027 6.17764 -38.5204 -0 -0 31.4289 -6.9213e-09 3.27617 1.42283 0.0813998 -4.64955e-07 -21.8169 
-5.2598 84.398 -8.612 26.6268 82.1949 45.6534 0 -0 0 -14.629 -3.84282 -7.55789 27.4755 -9.33699 6.656e-05 38.2039 13.7694 30.9702 -180 82.4546 -180 2.16666 3.93204 0.0744033 -28.804 14.4579 -0.000145393 -45.4215 18.1444 7.43102 1.36614e-06 -80.273 -1.15192e-06 18.9599 5.34997 0.893965 20.1892 -4.14411 -9.22302 -5.91143 -11.8692 -11.4648 -0 -0 50.5842 1.19508e-05 -1.53706 17.0401 -0.450496 9.28421e-07 -64.9584 -7.45056 6.28838 -37.2455 -0 -0 31.0644 1.64851e-07 4.09333 0.679505 0.0485998 1.91437e-07 -23.1532 
-4.1552 84.579 -8.6148 24.8105 81.439 43.5522 0 -0 0 -14.5923 -3.55105 -7.31457 27.4977 -9.3672 -1.84178e-05 38.6539 13.4874 30.7951 180 82.656 180 1.52267 3.65495 0.0485987 -29.1986 14.2094 -1.58164e-05 -44.7115 16.5031 8.14593 0 -78.9651 0 18.7938 5.50824 0.912229 20.48 -4.7184 -9.17756 -6.52306 -11.559 -12.3508 -0 -0 52.2204 1.39498e-05 -5.2662 16.37 -1.48812 -1.18245e-05 -60.0552 -7.59307 6.55099 -35.8739 -0 -0 30.4109 -3.23658e-08 4.83491 0.0869996 0.0074 -4.48832e-08 -24.5379 
-3.053 84.789 -8.5939 22.7454 80.7033 41.2163 0 -0 0 -14.394 -3.25435 -7.13052 27.5276 -9.39874 -2.06934e-05 39.0154 13.1776 30.6795 -180 82.8751 -180 0.893106 3.46704 0.0269998 -29.4924 13.9397 -7.10714e-05 -44.2371 14.9482 8.77973 0 -77.7728 -0 18.4831 5.57773 0.908223 20.7105 -5.29686 -9.05444 -6.98291 -11.1407 -13.2273 -0 -0 53.5837 -1.51792e-05 -8.64462 15.4828 -2.32407 -1.42158e-05 -54.5882 -7.67462 6.9446 -34.4446 -0 -0 29.5445 2.44478e-07 5.49015 -0.337101 -0.0324001 -6.7114e-08 -25.7589 
-1.9581 85.02 -8.55 20.5656 80.0105 38.7926 0 -0 0 -14.0414 -3.0038 -7.01444 27.5652 -9.42549 -7.30296e-05 39.2851 12.8531 30.6258 180 83.1114 180 0.329401 3.36773 0.0096999 -29.6723 13.6517 -8.20369e-05 -44.0006 13.5292 9.32089 1.63479e-06 -76.7447 -2.06456e-06 18.0648 5.56898 0.88593 20.8854 -5.85936 -8.84481 -7.2915 -10.6368 -14.1036 -0 -0 54.6866 -1.51367e-05 -11.5439 14.4223 -2.91217 3.70543e-05 -48.941 -7.69843 7.45137 -33.0047 -0 -0 28.5554 4.03548e-07 6.04107 -0.589394 -0.0623994 1.85065e-07 -26.6704 
-0.8743 85.263 -8.4859 18.425 79.3614 36.4489 0 -0 0 -13.5586 -2.8473 -6.96813 27.6089 -9.44479 -2.94968e-05 39.4683 12.5249 30.633 -180 83.3568 -180 -0.121705 3.34688 -0.00360017 -29.7307 13.3516 -9.51613e-07 -43.9883 12.2706 9.77166 0 -75.9203 0 17.5742 5.49923 0.850723 21.0099 -6.38786 -8.5447 -7.46403 -10.0797 -14.9821 -0 -0 55.5461 -8.64731e-05 -13.8855 13.2528 -3.24345 -4.24447e-06 -43.4689 -7.67731 8.04548 -31.5899 -0 -0 27.5138 3.50682e-07 6.47629 -0.676697 -0.0768004 3.34871e-07 -27.2198 
0.1962 85.512 -8.4051 16.4282 78.778 34.2916 0 -0 0 -12.97 -2.82491 -6.98642 27.6598 -9.45557 -2.33427e-05 39.5774 12.2003 30.6977 -180 83.6041 -180 -0.421697 3.38609 -0.0124998 -29.6652 13.0477 0.000185186 -44.1655 11.1778 10.1425 1.45591e-06 -75.3199 -1.88635e-06 17.0458 5.38806 0.80807 21.0882 -6.86926 -8.15669 -7.52201 -9.50715 -15.8639 -0 -0 56.1844 9.0766e-05 -15.6376 12.0459 -3.34338 -4.64554e-06 -38.4872 -7.62921 8.69819 -30.2241 -0 -0 26.4714 -1.68336e-07 6.78995 -0.615605 -0.0732996 -3.7107e-07 -27.4343 
